<?xml version="1.0" encoding="utf-8"?>
<svg version="1.1" xmlns="http://www.w3.org/2000/svg" x="0px" y="0px" viewBox="0 0 256 256" enable-background="new 0 0 256 256" xml:space="preserve">
<g><g>
    <path fill="#ffff" d="M128,101.8c-14.4,0-26.2,11.8-26.2,26.2c0,14.4,11.8,26.2,26.2,26.2s26.2-11.8,26.2-26.2C154.2,113.6,142.4,101.8,128,101.8 M219.8,10H36.2C21.8,10,10,21.8,10,36.2v183.6c0,14.4,11.8,26.2,26.2,26.2h183.5c14.4,0,26.2-11.8,26.2-26.2V36.2C246,21.8,234.2,10,219.8,10 M196.2,128v9.2l19.7,15.7c1.3,1.3,2.6,4,1.3,5.2l-18.4,31.5c-1.3,2.6-4,2.6-5.2,2.6l-22.3-9.2c-5.2,3.9-10.5,6.5-15.8,9.2l-3.9,24.9c0,2.6-2.6,4-3.9,4H111c-2.6,0-3.9-1.3-3.9-4l-5.3-24.9c-5.3-2.6-10.5-5.2-15.7-9.2l-22.3,9.2c-2.6,1.3-3.9,0-5.2-2.6l-18.4-31.5c-1.3-2.6,0-3.9,1.3-5.2l19.7-15.7V128v-9.2l-19.7-15.7c-1.3-1.3-2.6-3.9-1.3-5.2l18.4-31.5c1.3-2.6,3.9-2.6,5.2-2.6L86,72.9c5.2-2.6,10.5-6.6,15.7-9.2l3.9-24.9c0-2.6,2.6-3.9,3.9-3.9h36.7c2.6,0,3.9,1.3,3.9,3.9l3.9,24.9c5.2,2.6,10.5,5.2,15.7,9.2l22.3-9.2c2.6-1.3,3.9,0,5.3,2.6l18.3,31.5c1.3,2.6,0,3.9-1.3,5.2l-19.7,15.7C196.2,121.5,196.2,125.4,196.2,128"/></g></g>
</svg>